<svg xmlns="http://www.w3.org/2000/svg" xmlns:xlink="http://www.w3.org/1999/xlink" version="1.1" x="0px" y="0px" viewBox="0 0 100 125" enable-background="new 0 0 100 100" xml:space="preserve"><g><circle cx="65.2" cy="72.2" r="4.2"/><path d="M78.1,20.6l-11.8,0L65,28.7l-42.6,0L26,55.8h34.5l-0.9,5.3H24.8c-1.3,2.5,0.5,5.4,3.3,5.4h32.8c1.9,0,3.5-1.4,3.8-3.2   l6.2-37h7.3c1.2,0,2.3-0.8,2.7-2C81.5,22.5,80.1,20.6,78.1,20.6z M38.6,41.2l5.6,0l-0.3,2.3l-5.6,0L38.6,41.2z M48.3,43.6l0.3-2.3   l5.5,0l-0.3,2.3L48.3,43.6z M62.5,43.6l-4.3,0l0.3-2.3l4.3,0L62.5,43.6z M54.8,36.8l-5.5,0l0.4-2.7h5.5L54.8,36.8z M44.9,36.8   l-5.6,0l0.4-2.6h5.6L44.9,36.8z M34.3,41.2l-0.3,2.3l-3.9,0l-0.3-2.3L34.3,41.2z M37.6,48l5.6,0l-0.4,2.7h-5.6L37.6,48z M47.6,48   l5.5,0l-0.4,2.7h-5.5L47.6,48z M63.6,36.9l-4.4,0l0.4-2.7h4.5L63.6,36.9z M35.3,34.2l-0.4,2.6l-5.7,0l-0.3-2.6H35.3z M30.5,48   l2.7,0l-0.4,2.7h-2L30.5,48z M57.1,50.7l0.4-2.7l4.2,0l-0.4,2.7H57.1z"/><circle cx="30.7" cy="72.2" r="4.2"/></g><text x="0" y="115" fill="#000000" font-size="5px" font-weight="bold" font-family="'Helvetica Neue', Helvetica, Arial-Unicode, Arial, Sans-serif">Created by Steven Rescigno</text><text x="0" y="120" fill="#000000" font-size="5px" font-weight="bold" font-family="'Helvetica Neue', Helvetica, Arial-Unicode, Arial, Sans-serif">from the Noun Project</text></svg>