<svg xmlns="http://www.w3.org/2000/svg" xmlns:xlink="http://www.w3.org/1999/xlink" xmlns:serif="http://www.serif.com/" viewBox="0 0 100 125" version="1.1" xml:space="preserve" style="" x="0px" y="0px" fill-rule="evenodd" clip-rule="evenodd" stroke-linejoin="round" stroke-miterlimit="2"><g transform="matrix(1,0,0,1,-900,0)"><g serif:id="Seite 9" transform="matrix(1,0,0,1,900,0)"><rect x="0" y="0" width="100" height="100" style="" fill="none"/><g transform="matrix(1,0,0,1,-899,0)"><path d="M973.518,22.625C975.208,23.247 976.412,24.87 976.412,26.775L976.412,32.179L980.832,38.36L980.832,52.47L978.994,52.47C979,53.758 979.012,55.148 979.024,56.607C979.156,71.906 979.05,84.784 976.407,87.453C975.913,87.948 975.402,88.055 975.06,88.055C974.09,88.055 973.3,87.751 972.712,87.155C971.031,85.448 971.088,81.517 971.194,74.381C971.221,72.42 971.254,70.227 971.254,67.79C971.254,61.854 970.816,58.131 969.918,56.418C969.249,55.141 968.497,55.117 967.149,55.141L967.079,54.403L967.149,53.665C968.559,53.657 970.14,53.665 971.224,55.733C972.265,57.72 972.727,61.435 972.727,67.79C972.727,70.236 972.695,72.437 972.666,74.403C972.574,80.695 972.514,84.852 973.762,86.12C974.071,86.433 974.483,86.581 975.06,86.581C975.094,86.581 975.194,86.581 975.36,86.415C977.786,83.966 977.639,66.847 977.55,56.621C977.537,55.157 977.526,53.761 977.52,52.47L968.92,52.47L968.92,52.439L968.284,52.439L968.284,22.912L962.983,17.535L965.782,14.777L973.518,22.625ZM976.412,35.978L976.412,43.844L973.095,43.844L973.095,50.258L978.622,50.258L978.622,39.069L976.412,35.978Z" style="" fill-rule="nonzero"/></g><g transform="matrix(1,0,0,1,-900,0)"><path d="M948.138,54.961C948.138,57.453 946.12,59.475 943.627,59.475C941.134,59.475 939.113,57.453 939.113,54.961C939.113,52.47 943.627,46.437 943.627,46.437C943.627,46.437 948.138,52.47 948.138,54.961Z"/></g><g transform="matrix(1,0,0,1,-900,0)"><path d="M960.953,96.79L926.536,96.79C922.468,96.79 919.168,93.491 919.168,89.421L919.168,10.579C919.168,6.509 922.468,3.21 926.536,3.21L960.953,3.21C965.022,3.21 968.321,6.509 968.321,10.579L968.321,89.421C968.321,93.491 965.022,96.789 960.953,96.79ZM952.1,52.954C952.1,57.636 948.307,61.43 943.627,61.43C938.948,61.43 935.153,57.636 935.153,52.954C935.153,48.275 938.948,44.482 943.627,44.482C948.307,44.482 952.1,48.275 952.1,52.954ZM957.928,11.052L929.559,11.052C927.117,11.053 925.138,13.032 925.138,15.475L925.138,30.212C925.138,32.653 927.118,34.633 929.559,34.633L957.928,34.633C960.37,34.633 962.35,32.653 962.35,30.212L962.35,15.475C962.35,13.032 960.37,11.053 957.928,11.052Z"/></g></g></g><text x="0" y="115" fill="#000000" font-size="5px" font-weight="bold" font-family="'Helvetica Neue', Helvetica, Arial-Unicode, Arial, Sans-serif">Created by Falco Boßer</text><text x="0" y="120" fill="#000000" font-size="5px" font-weight="bold" font-family="'Helvetica Neue', Helvetica, Arial-Unicode, Arial, Sans-serif">from the Noun Project</text></svg>