<svg xmlns="http://www.w3.org/2000/svg" viewBox="0 0 64 80" x="0px" y="0px"><title>offer, discount, sale, percentage,  price, </title><g><rect x="21.69" y="34" width="22.63" height="2" transform="translate(-15.08 33.59) rotate(-45)"/><path d="M28,34a4,4,0,1,0-4-4A4,4,0,0,0,28,34Zm0-6a2,2,0,1,1-2,2A2,2,0,0,1,28,28Z"/><path d="M37,37a4,4,0,1,0,4,4A4,4,0,0,0,37,37Zm0,6a2,2,0,1,1,2-2A2,2,0,0,1,37,43Z"/><path d="M37,50a1,1,0,0,0,0-2H27a1,1,0,0,0,0,2Z"/><path d="M39,52H25a1,1,0,0,0,0,2H39a1,1,0,0,0,0-2Z"/><path d="M39,56H25a1,1,0,0,0,0,2H39a1,1,0,0,0,0-2Z"/><path d="M32,2a1,1,0,0,0-1,1v8.81a3.7,3.7,0,0,0-1.16.61l-12.43,10-.41.38V60.9A1.1,1.1,0,0,0,18.1,62H45.9A1.1,1.1,0,0,0,47,60.9V23.25l0-.56L34.16,12.42A3.7,3.7,0,0,0,33,11.81V3A1,1,0,0,0,32,2Zm0,19a1,1,0,0,0,1-1v-.72a2,2,0,1,1-2,0V20A1,1,0,0,0,32,21Zm13,2.68V60H19V23.68l12-9.62v3.08a4,4,0,1,0,2,0V14.06Z"/></g><text x="0" y="79" fill="#000000" font-size="5px" font-weight="bold" font-family="'Helvetica Neue', Helvetica, Arial-Unicode, Arial, Sans-serif">Created by Vichanon Chaimsuk</text><text x="0" y="84" fill="#000000" font-size="5px" font-weight="bold" font-family="'Helvetica Neue', Helvetica, Arial-Unicode, Arial, Sans-serif">from the Noun Project</text></svg>