<svg xmlns="http://www.w3.org/2000/svg" xmlns:xlink="http://www.w3.org/1999/xlink" version="1.1" x="0px" y="0px" viewBox="0 0 64 80" style="enable-background:new 0 0 64 64;" xml:space="preserve"><g><path d="M49,4H23c-2.446,0-4.479,1.768-4.908,4.092c-2.028,0.375-3.625,1.972-4,4C11.768,12.521,10,14.554,10,17v38   c0,2.757,2.243,5,5,5h26c2.446,0,4.479-1.768,4.908-4.092c2.028-0.375,3.625-1.972,4-4C52.232,51.479,54,49.446,54,47V9   C54,6.243,51.757,4,49,4z M44,55c0,1.654-1.346,3-3,3H15c-1.654,0-3-1.346-3-3V17c0-1.654,1.346-3,3-3h26c1.654,0,3,1.346,3,3V55z    M48,51c0,1.302-0.839,2.402-2,2.816V17c0-2.757-2.243-5-5-5H16.184c0.414-1.161,1.514-2,2.816-2h26c1.654,0,3,1.346,3,3V51z    M52,47c0,1.302-0.839,2.402-2,2.816V13c0-2.757-2.243-5-5-5H20.184C20.598,6.839,21.698,6,23,6h26c1.654,0,3,1.346,3,3V47z"/><path d="M39,17c-1.654,0-3,1.346-3,3c0,0.462,0.113,0.894,0.301,1.285l-3.407,3.407C32.375,24.266,31.722,24,31,24   c-0.789,0-1.502,0.312-2.038,0.811l-3.127-1.876C25.934,22.639,26,22.329,26,22c0-1.654-1.346-3-3-3s-3,1.346-3,3   c0,0.519,0.145,1.001,0.378,1.427l-2.897,3.622C17.323,27.023,17.164,27,17,27c-1.654,0-3,1.346-3,3s1.346,3,3,3s3-1.346,3-3   c0-0.754-0.289-1.435-0.749-1.962l2.612-3.265C22.214,24.918,22.597,25,23,25c0.59,0,1.137-0.177,1.602-0.473l3.439,2.064   C28.023,26.726,28,26.86,28,27c0,1.654,1.346,3,3,3s3-1.346,3-3c0-0.182-0.023-0.359-0.054-0.532l3.768-3.768   C38.106,22.887,38.538,23,39,23c1.654,0,3-1.346,3-3S40.654,17,39,17z M17,31c-0.551,0-1-0.448-1-1s0.449-1,1-1s1,0.448,1,1   S17.551,31,17,31z M22,22c0-0.552,0.449-1,1-1s1,0.448,1,1s-0.449,1-1,1S22,22.552,22,22z M31,28c-0.551,0-1-0.448-1-1s0.449-1,1-1   s1,0.448,1,1S31.551,28,31,28z M39,21c-0.551,0-1-0.448-1-1s0.449-1,1-1s1,0.448,1,1S39.551,21,39,21z"/><rect x="16" y="35" width="24" height="2"/><rect x="16" y="39" width="24" height="2"/><path d="M21,43c-3.309,0-6,2.691-6,6s2.691,6,6,6s6-2.691,6-6S24.309,43,21,43z M25,49c0,0.539-0.11,1.052-0.304,1.522L22,48.5   v-3.358C23.72,45.589,25,47.141,25,49z M20,45.142V48h-2.858C17.506,46.601,18.601,45.506,20,45.142z M17.142,50h3.525l2.816,2.112   C22.798,52.659,21.942,53,21,53C19.142,53,17.589,51.721,17.142,50z"/><rect x="29" y="44" width="11" height="2"/><rect x="29" y="48" width="11" height="2"/><rect x="29" y="52" width="11" height="2"/></g><text x="0" y="79" fill="#000000" font-size="5px" font-weight="bold" font-family="'Helvetica Neue', Helvetica, Arial-Unicode, Arial, Sans-serif">Created by Becris</text><text x="0" y="84" fill="#000000" font-size="5px" font-weight="bold" font-family="'Helvetica Neue', Helvetica, Arial-Unicode, Arial, Sans-serif">from the Noun Project</text></svg>