<svg xmlns="http://www.w3.org/2000/svg" xmlns:xlink="http://www.w3.org/1999/xlink" version="1.1" x="0px" y="0px" viewBox="0 0 70 87.5" enable-background="new 0 0 70 70" xml:space="preserve"><g><path d="M24.7498474,24.3671875c1.7563477,0,3.1850586,1.487793,3.1850586,3.3164063c0,0.5522461,0.4477539,1,1,1s1-0.4477539,1-1   c0-2.5805054-1.8035889-4.7330322-4.1850586-5.2127075v-0.7355347c0-0.5522461-0.4477539-1-1-1s-1,0.4477539-1,1v0.7355347   c-2.3814087,0.4796753-4.1845703,2.6322021-4.1845703,5.2127075C19.5652771,30.6152344,21.8909607,33,24.7498474,33   c1.7563477,0,3.1850586,1.487793,3.1850586,3.3164063s-1.4287109,3.3164063-3.1850586,3.3164063   c-1.7558594,0-3.1845703-1.487793-3.1845703-3.3164063c0-0.5522461-0.4477539-1-1-1s-1,0.4477539-1,1   c0,2.5805054,1.8031616,4.7330322,4.1845703,5.2127075v1.0700073c0,0.5522461,0.4477539,1,1,1s1-0.4477539,1-1v-1.0700073   c2.3814697-0.4796753,4.1850586-2.6322021,4.1850586-5.2127075C29.934906,33.3847656,27.6087341,31,24.7498474,31   c-1.7558594,0-3.1845703-1.487793-3.1845703-3.3164063S22.993988,24.3671875,24.7498474,24.3671875z"/><path d="M68.6766663,31.1400146l-9.6500244-5.7900391c-0.2999878-0.1799927-0.6900024-0.1900024-1-0.0100098   c-0.3200073,0.1799927-0.5100098,0.5100098-0.5100098,0.8699951v2.0700073H44.6666565c-0.5499878,0-1,0.4400024-1,1v5.4400024   c0,0.5599976,0.4500122,1,1,1h12.8499756v2.0700073c0,0.3599854,0.1900024,0.6900024,0.5100098,0.8699951   C58.1766663,38.75,58.3466492,38.789978,58.5166321,38.789978c0.1800537,0,0.3600464-0.0499878,0.5100098-0.1400146   l9.6500244-5.789978C68.9866638,32.6799927,69.1666565,32.3499756,69.1666565,32   C69.1666565,31.6499634,68.9866638,31.3200073,68.6766663,31.1400146z"/><path d="M41.6633606,34.7199707v-5.4400024c0-1.6499634,1.3499756-3,3-3h4V6.539978c0-2.5-2.0400391-4.539978-4.5400391-4.539978   h-38.75c-2.5,0-4.539978,2.039978-4.539978,4.539978v47.1300049h47.8300171V37.7199707h-4   C43.0133362,37.7199707,41.6633606,36.3699951,41.6633606,34.7199707z M20.5652771,6.25h9.7470703c0.5522461,0,1,0.4477539,1,1   s-0.4477539,1-1,1h-9.7470703c-0.5522461,0-1-0.4477539-1-1S20.013031,6.25,20.5652771,6.25z M24.7498474,46.5   c-7.9951172,0-14.5-6.5048828-14.5-14.5s6.5048828-14.5,14.5-14.5s14.5,6.5048828,14.5,14.5S32.7449646,46.5,24.7498474,46.5z"/><path d="M47.6633606,55.6699829H1.8333435c-0.5499878,0-1,0.4400024-1,1v6.789978c0,2.5,2.039978,4.5400391,4.539978,4.5400391   h38.75c2.5100098,0,4.5400391-2.0400391,4.5400391-4.5400391v-6.789978   C48.6633606,56.1099854,48.2233582,55.6699829,47.6633606,55.6699829z M24.7498474,65   c-1.7460938,0-3.1665039-1.4204102-3.1665039-3.1665039s1.4204102-3.1669922,3.1665039-3.1669922   s3.1669922,1.4208984,3.1669922,3.1669922S26.4959412,65,24.7498474,65z"/></g><text x="0" y="85" fill="#000000" font-size="5px" font-weight="bold" font-family="'Helvetica Neue', Helvetica, Arial-Unicode, Arial, Sans-serif">Created by Vectorstall</text><text x="0" y="90" fill="#000000" font-size="5px" font-weight="bold" font-family="'Helvetica Neue', Helvetica, Arial-Unicode, Arial, Sans-serif">from the Noun Project</text></svg>